name GIL06_fast3EmgEnv.mot
datacolumns 51
datarows 10
range 0.58425927 0.59259260
endheader
                time	   rect_fem_l_emgRec	   rect_fem_l_emgEnv	   rect_fem_l_emgAve	   rect_fem_l_emgSDp	   rect_fem_l_emgSDm	   rect_fem_r_emgRec	   rect_fem_r_emgEnv	   rect_fem_r_emgAve	   rect_fem_r_emgSDp	   rect_fem_r_emgSDm	   med_hams_l_emgRec	   med_hams_l_emgEnv	   med_hams_l_emgAve	   med_hams_l_emgSDp	   med_hams_l_emgSDm	   med_hams_r_emgRec	   med_hams_r_emgEnv	   med_hams_r_emgAve	   med_hams_r_emgSDp	   med_hams_r_emgSDm	   lat_hams_l_emgRec	   lat_hams_l_emgEnv	   lat_hams_l_emgAve	   lat_hams_l_emgSDp	   lat_hams_l_emgSDm	   lat_hams_r_emgRec	   lat_hams_r_emgEnv	   lat_hams_r_emgAve	   lat_hams_r_emgSDp	   lat_hams_r_emgSDm	    tib_ant_l_emgRec	    tib_ant_l_emgEnv	    tib_ant_l_emgAve	    tib_ant_l_emgSDp	    tib_ant_l_emgSDm	    tib_ant_r_emgRec	    tib_ant_r_emgEnv	    tib_ant_r_emgAve	    tib_ant_r_emgSDp	    tib_ant_r_emgSDm	    gas_sol_l_emgRec	    gas_sol_l_emgEnv	    gas_sol_l_emgAve	    gas_sol_l_emgSDp	    gas_sol_l_emgSDm	    gas_sol_r_emgRec	    gas_sol_r_emgEnv	    gas_sol_r_emgAve	    gas_sol_r_emgSDp	    gas_sol_r_emgSDm	
          0.58425927	          0.04705053	          0.05330046	          0.06263795	          0.08281276	          0.04246315	          0.01761842	          0.49235220	          0.50335878	          0.57956543	          0.42715213	          0.04789903	          0.01579893	          0.05856964	          0.10483848	          0.01230080	          0.01087950	          0.15374766	          0.25907347	          0.48088042	          0.03726651	          0.01257801	          0.01460246	          0.01870366	          0.03363770	          0.00376963	          0.07956319	          0.19500055	          0.22871186	          0.34094504	          0.11647867	          0.01830445	          0.08344255	          0.15904877	          0.21434542	          0.10375211	          0.00082128	          0.28858904	          0.25547048	          0.33645517	          0.17448580	          0.02644137	          0.04998841	          0.01449492	          0.02881945	          0.00017039	          0.00415920	          0.06720255	          0.02693872	          0.04105762	          0.01281981	
          0.58518517	          0.05156886	          0.05422185	          0.06221718	          0.08180600	          0.04262836	          0.07785834	          0.48706757	          0.50013459	          0.57615663	          0.42411254	          0.03023836	          0.01560841	          0.06026248	          0.10808625	          0.01243870	          0.06636980	          0.14963013	          0.25851774	          0.48152557	          0.03550991	          0.00214600	          0.01432215	          0.01940176	          0.03461000	          0.00419351	          0.13087763	          0.19506563	          0.22874482	          0.34167513	          0.11581451	          0.03394575	          0.08568257	          0.16344763	          0.22005261	          0.10684266	          0.00647603	          0.27843142	          0.25057855	          0.33071010	          0.17044701	          0.02298781	          0.04990642	          0.01526099	          0.02960773	          0.00091426	          0.01631037	          0.06571659	          0.02714201	          0.04137317	          0.01291085	
          0.58611113	          0.04438621	          0.05515959	          0.06179500	          0.08080365	          0.04278635	          0.01858928	          0.48173368	          0.49689075	          0.57272600	          0.42105551	          0.00586715	          0.01548635	          0.06198667	          0.11139152	          0.01258182	          0.05446173	          0.14557450	          0.25797445	          0.48216859	          0.03378031	          0.01147243	          0.01403638	          0.02012520	          0.03562656	          0.00462385	          0.12367266	          0.19522231	          0.22877994	          0.34239570	          0.11516418	          0.02611278	          0.08793110	          0.16789210	          0.22581784	          0.10996636	          0.00412353	          0.26852062	          0.24573474	          0.32502019	          0.16644928	          0.02069046	          0.04983280	          0.01605253	          0.03044034	          0.00166472	          0.02626877	          0.06421861	          0.02737094	          0.04171921	          0.01302267	
          0.58703709	          0.02651770	          0.05611190	          0.06137163	          0.07980628	          0.04293698	          0.05467002	          0.47635389	          0.49362800	          0.56927428	          0.41798171	          0.03340955	          0.01543568	          0.06374138	          0.11475201	          0.01273075	          0.01070072	          0.14158424	          0.25744343	          0.48280904	          0.03207782	          0.01634490	          0.01374634	          0.02087313	          0.03668596	          0.00506029	          0.04805928	          0.19546867	          0.22881725	          0.34310652	          0.11452799	          0.00623636	          0.09018685	          0.17238045	          0.23163861	          0.11312228	          0.01003923	          0.25886711	          0.24094038	          0.31938697	          0.16249378	          0.01116622	          0.04976752	          0.01686832	          0.03131569	          0.00242095	          0.00756872	          0.06271171	          0.02762557	          0.04209581	          0.01315533	
          0.58796299	          0.02052055	          0.05707697	          0.06094729	          0.07881447	          0.04308010	          0.08973837	          0.47093179	          0.49034736	          0.56580253	          0.41489218	          0.03812225	          0.01545923	          0.06552564	          0.11816532	          0.01288595	          0.00731974	          0.13766261	          0.25692484	          0.48344669	          0.03040299	          0.01878135	          0.01345323	          0.02164459	          0.03778668	          0.00550250	          0.03219301	          0.19580253	          0.22885676	          0.34380740	          0.11390612	          0.03460539	          0.09244865	          0.17691100	          0.23751241	          0.11630958	          0.00887749	          0.24948055	          0.23619679	          0.31381189	          0.15858168	          0.00474981	          0.04971059	          0.01770711	          0.03223211	          0.00318211	          0.01652653	          0.06119896	          0.02790596	          0.04250303	          0.01330889	
          0.58888888	          0.02201118	          0.05805295	          0.06052213	          0.07782868	          0.04321558	          0.17718640	          0.46547117	          0.48704883	          0.56231074	          0.41178693	          0.02739564	          0.01555975	          0.06733875	          0.12162942	          0.01304808	          0.04909573	          0.13381267	          0.25641844	          0.48408107	          0.02875580	          0.01181176	          0.01315826	          0.02243874	          0.03892729	          0.00595018	          0.02338172	          0.19622149	          0.22889847	          0.34449823	          0.11329870	          0.03957619	          0.09471545	          0.18148264	          0.24343744	          0.11952784	          0.02912173	          0.24036982	          0.23150459	          0.30829559	          0.15471359	          0.01622638	          0.04966197	          0.01856778	          0.03318806	          0.00394751	          0.01650863	          0.05968337	          0.02821218	          0.04294095	          0.01348340	
          0.58981484	          0.01401986	          0.05903796	          0.06009639	          0.07684944	          0.04334335	          0.03903245	          0.45997599	          0.48373303	          0.55879951	          0.40866655	          0.01740908	          0.01573989	          0.06918002	          0.12514235	          0.01321769	          0.00564538	          0.13003727	          0.25592414	          0.48471195	          0.02713633	          0.00181461	          0.01286262	          0.02325470	          0.04010635	          0.00640304	          0.05528982	          0.19672287	          0.22894233	          0.34517883	          0.11270584	          0.02403075	          0.09698632	          0.18609414	          0.24941175	          0.12277652	          0.03168401	          0.23154291	          0.22686449	          0.30283882	          0.15089016	          0.02257603	          0.04962163	          0.01944921	          0.03418198	          0.00471645	          0.00101931	          0.05816793	          0.02854431	          0.04340968	          0.01367894	
          0.59074080	          0.01244143	          0.06003006	          0.05967026	          0.07587730	          0.04346323	          0.01818426	          0.45445039	          0.48040065	          0.55526954	          0.40553176	          0.01575359	          0.01600218	          0.07104845	          0.12870147	          0.01339544	          0.02939125	          0.12633904	          0.25544187	          0.48533891	          0.02554484	          0.00624203	          0.01256750	          0.02409144	          0.04132216	          0.00686073	          0.11146909	          0.19730378	          0.22898835	          0.34584899	          0.11212771	          0.01275406	          0.09926047	          0.19074370	          0.25543264	          0.12605476	          0.02316190	          0.22300697	          0.22227767	          0.29744292	          0.14711242	          0.01499618	          0.04958952	          0.02035016	          0.03521216	          0.00548816	          0.01631759	          0.05665552	          0.02890235	          0.04390921	          0.01389550	
          0.59166670	          0.04126804	          0.06102731	          0.05924401	          0.07491291	          0.04357512	          0.20248559	          0.44889865	          0.47705236	          0.55172154	          0.40238319	          0.00716429	          0.01634902	          0.07294304	          0.13230413	          0.01358195	          0.01489224	          0.12272040	          0.25497147	          0.48596141	          0.02398154	          0.00919574	          0.01227407	          0.02494795	          0.04257302	          0.00732287	          0.10246729	          0.19796111	          0.22903661	          0.34650863	          0.11156460	          0.00879313	          0.10153729	          0.19542956	          0.26149747	          0.12936166	          0.01013937	          0.21476822	          0.21774536	          0.29210926	          0.14338147	          0.00237584	          0.04956562	          0.02126941	          0.03627690	          0.00626192	          0.02094391	          0.05514899	          0.02928630	          0.04443951	          0.01413309	
          0.59259260	          0.04972906	          0.06202775	          0.05881780	          0.07395674	          0.04367887	          0.31208140	          0.44332519	          0.47368848	          0.54815581	          0.39922116	          0.00226790	          0.01678269	          0.07486302	          0.13594816	          0.01377789	          0.04846691	          0.11918354	          0.25451294	          0.48657928	          0.02244659	          0.00149781	          0.01198351	          0.02582323	          0.04385728	          0.00778919	          0.08336801	          0.19869149	          0.22908698	          0.34715749	          0.11101647	          0.01474908	          0.10381630	          0.20015047	          0.26760419	          0.13269676	          0.00966959	          0.20683199	          0.21326803	          0.28683830	          0.13969775	          0.00435098	          0.04954986	          0.02220583	          0.03737457	          0.00703709	          0.00268843	          0.05365109	          0.02969621	          0.04500067	          0.01439174	
